{
  "accessors": [
    {
      "bufferView": 2,
      "componentType": 5126,
      "count": 65532,
      "max": [
        0.7298949956893921,
        0.3877519965171814,
        0.7333400249481201
      ],
      "min": [
        -0.7273669838905334,
        -0.9972059726715088,
        -0.015021000057458878
      ],
      "type": "VEC3"
    },
    {
      "bufferView": 2,
      "byteOffset": 786384,
      "componentType": 5126,
      "count": 65532,
      "max": [
        0.9999227523803711,
        0.9999850988388062,
        0.999970555305481
      ],
      "min": [
        -0.9999970197677612,
        -1.0,
        -0.9993749856948853
      ],
      "type": "VEC3"
    },
    {
      "bufferView": 3,
      "componentType": 5126,
      "count": 65532,
      "max": [
        0.9999985694885254,
        0.9988685250282288,
        0.99998539686203,
        1.0
      ],
      "min": [
        -0.9999154210090637,
        -0.9996733665466309,
        -0.9999939203262329,
        -1.0
      ],
      "type": "VEC4"
    },
    {
      "bufferView": 1,
      "componentType": 5126,
      "count": 65532,
      "max": [
        0.9927449822425842,
        0.999970018863678
      ],
      "min": [
        6.399999983841553e-05,
        2.9027462005615234e-05
      ],
      "type": "VEC2"
    },
    {
      "bufferView": 1,
      "byteOffset": 524256,
      "componentType": 5126,
      "count": 65532,
      "max": [
        0.9927449822425842,
        0.999970018863678
      ],
      "min": [
        6.399999983841553e-05,
        2.9027462005615234e-05
      ],
      "type": "VEC2"
    },
    {
      "bufferView": 1,
      "byteOffset": 1048512,
      "componentType": 5126,
      "count": 65532,
      "max": [
        0.9927449822425842,
        0.999970018863678
      ],
      "min": [
        6.399999983841553e-05,
        2.9027462005615234e-05
      ],
      "type": "VEC2"
    },
    {
      "bufferView": 1,
      "byteOffset": 1572768,
      "componentType": 5126,
      "count": 65532,
      "max": [
        0.9927449822425842,
        0.999970018863678
      ],
      "min": [
        6.399999983841553e-05,
        2.9027462005615234e-05
      ],
      "type": "VEC2"
    },
    {
      "bufferView": 0,
      "componentType": 5125,
      "count": 355602,
      "type": "SCALAR"
    },
    {
      "bufferView": 2,
      "byteOffset": 1572768,
      "componentType": 5126,
      "count": 65532,
      "max": [
        0.7320359945297241,
        0.9954630136489868,
        0.20637400448322296
      ],
      "min": [
        -0.7071539759635925,
        -0.9977099895477295,
        -0.29747098684310913
      ],
      "type": "VEC3"
    },
    {
      "bufferView": 2,
      "byteOffset": 2359152,
      "componentType": 5126,
      "count": 65532,
      "max": [
        0.9999971985816956,
        1.0,
        0.9999810457229614
      ],
      "min": [
        -0.9999794960021973,
        -1.0,
        -0.9999924898147583
      ],
      "type": "VEC3"
    },
    {
      "bufferView": 3,
      "byteOffset": 1048512,
      "componentType": 5126,
      "count": 65532,
      "max": [
        0.9999998211860657,
        0.9999893307685852,
        0.9999974370002747,
        -1.0
      ],
      "min": [
        -0.999995768070221,
        -0.9999943971633911,
        -0.9999346137046814,
        -1.0
      ],
      "type": "VEC4"
    },
    {
      "bufferView": 1,
      "byteOffset": 2097024,
      "componentType": 5126,
      "count": 65532,
      "max": [
        0.9974240064620972,
        0.999809980392456
      ],
      "min": [
        0.002621999941766262,
        0.00020301342010498047
      ],
      "type": "VEC2"
    },
    {
      "bufferView": 1,
      "byteOffset": 2621280,
      "componentType": 5126,
      "count": 65532,
      "max": [
        0.9974240064620972,
        0.999809980392456
      ],
      "min": [
        0.002621999941766262,
        0.00020301342010498047
      ],
      "type": "VEC2"
    },
    {
      "bufferView": 1,
      "byteOffset": 3145536,
      "componentType": 5126,
      "count": 65532,
      "max": [
        0.9974240064620972,
        0.999809980392456
      ],
      "min": [
        0.002621999941766262,
        0.00020301342010498047
      ],
      "type": "VEC2"
    },
    {
      "bufferView": 1,
      "byteOffset": 3669792,
      "componentType": 5126,
      "count": 65532,
      "max": [
        0.9974240064620972,
        0.999809980392456
      ],
      "min": [
        0.002621999941766262,
        0.00020301342010498047
      ],
      "type": "VEC2"
    },
    {
      "bufferView": 0,
      "byteOffset": 1422408,
      "componentType": 5125,
      "count": 344403,
      "type": "SCALAR"
    },
    {
      "bufferView": 2,
      "byteOffset": 3145536,
      "componentType": 5126,
      "count": 65532,
      "max": [
        0.6240620017051697,
        0.9953920245170593,
        0.06484100222587585
      ],
      "min": [
        -0.4609600007534027,
        -0.9963880181312561,
        -0.7367870211601257
      ],
      "type": "VEC3"
    },
    {
      "bufferView": 2,
      "byteOffset": 3931920,
      "componentType": 5126,
      "count": 65532,
      "max": [
        0.9999997615814209,
        0.9999996423721313,
        0.9961897134780884
      ],
      "min": [
        -0.9999868869781494,
        -1.0,
        -0.999982476234436
      ],
      "type": "VEC3"
    },
    {
      "bufferView": 3,
      "byteOffset": 2097024,
      "componentType": 5126,
      "count": 65532,
      "max": [
        0.9999881386756897,
        0.9999972581863403,
        0.9998288154602051,
        -1.0
      ],
      "min": [
        -0.9999881982803345,
        -0.9999997615814209,
        -0.9994803071022034,
        -1.0
      ],
      "type": "VEC4"
    },
    {
      "bufferView": 1,
      "byteOffset": 4194048,
      "componentType": 5126,
      "count": 65532,
      "max": [
        0.9977099895477295,
        0.9999480247497559
      ],
      "min": [
        0.0056929998099803925,
        0.00015300512313842773
      ],
      "type": "VEC2"
    },
    {
      "bufferView": 1,
      "byteOffset": 4718304,
      "componentType": 5126,
      "count": 65532,
      "max": [
        0.9977099895477295,
        0.9999480247497559
      ],
      "min": [
        0.0056929998099803925,
        0.00015300512313842773
      ],
      "type": "VEC2"
    },
    {
      "bufferView": 1,
      "byteOffset": 5242560,
      "componentType": 5126,
      "count": 65532,
      "max": [
        0.9977099895477295,
        0.9999480247497559
      ],
      "min": [
        0.0056929998099803925,
        0.00015300512313842773
      ],
      "type": "VEC2"
    },
    {
      "bufferView": 1,
      "byteOffset": 5766816,
      "componentType": 5126,
      "count": 65532,
      "max": [
        0.9977099895477295,
        0.9999480247497559
      ],
      "min": [
        0.0056929998099803925,
        0.00015300512313842773
      ],
      "type": "VEC2"
    },
    {
      "bufferView": 0,
      "byteOffset": 2800020,
      "componentType": 5125,
      "count": 348870,
      "type": "SCALAR"
    },
    {
      "bufferView": 2,
      "byteOffset": 4718304,
      "componentType": 5126,
      "count": 54170,
      "max": [
        0.7319759726524353,
        0.9953280091285706,
        0.07195600122213364
      ],
      "min": [
        -0.6580700278282166,
        -0.9972699880599976,
        -0.7392889857292175
      ],
      "type": "VEC3"
    },
    {
      "bufferView": 2,
      "byteOffset": 5368344,
      "componentType": 5126,
      "count": 54170,
      "max": [
        0.9999979734420776,
        0.9999996423721313,
        0.9999991655349731
      ],
      "min": [
        -0.9999969005584717,
        -1.0,
        -0.999992847442627
      ],
      "type": "VEC3"
    },
    {
      "bufferView": 3,
      "byteOffset": 3145536,
      "componentType": 5126,
      "count": 54170,
      "max": [
        0.9999979138374329,
        0.9999809265136719,
        0.9999584555625916,
        -1.0
      ],
      "min": [
        -0.9999873638153076,
        -0.9999536275863647,
        -0.9998147487640381,
        -1.0
      ],
      "type": "VEC4"
    },
    {
      "bufferView": 1,
      "byteOffset": 6291072,
      "componentType": 5126,
      "count": 54170,
      "max": [
        0.997937023639679,
        0.9999240040779114
      ],
      "min": [
        0.0017000000225380063,
        1.4007091522216797e-05
      ],
      "type": "VEC2"
    },
    {
      "bufferView": 1,
      "byteOffset": 6724432,
      "componentType": 5126,
      "count": 54170,
      "max": [
        0.997937023639679,
        0.9999240040779114
      ],
      "min": [
        0.0017000000225380063,
        1.4007091522216797e-05
      ],
      "type": "VEC2"
    },
    {
      "bufferView": 1,
      "byteOffset": 7157792,
      "componentType": 5126,
      "count": 54170,
      "max": [
        0.997937023639679,
        0.9999240040779114
      ],
      "min": [
        0.0017000000225380063,
        1.4007091522216797e-05
      ],
      "type": "VEC2"
    },
    {
      "bufferView": 1,
      "byteOffset": 7591152,
      "componentType": 5126,
      "count": 54170,
      "max": [
        0.997937023639679,
        0.9999240040779114
      ],
      "min": [
        0.0017000000225380063,
        1.4007091522216797e-05
      ],
      "type": "VEC2"
    },
    {
      "bufferView": 0,
      "byteOffset": 4195500,
      "componentType": 5125,
      "count": 254547,
      "type": "SCALAR"
    }
  ],
  "asset": {
    "extras": {
      "author": "CH (https://sketchfab.com/lohchiaheung)",
      "license": "CC-BY-4.0 (http://creativecommons.org/licenses/by/4.0/)",
      "source": "https://sketchfab.com/3d-models/arguide-bot-71c6282036bb40ab8f35e43f79f5f866",
      "title": "ARGuide_Bot"
    },
    "generator": "Sketchfab-16.73.0",
    "version": "2.0"
  },
  "bufferViews": [
    {
      "buffer": 0,
      "byteLength": 5213688,
      "name": "floatBufferViews",
      "target": 34963
    },
    {
      "buffer": 0,
      "byteLength": 8024512,
      "byteOffset": 5213688,
      "byteStride": 8,
      "name": "floatBufferViews",
      "target": 34962
    },
    {
      "buffer": 0,
      "byteLength": 6018384,
      "byteOffset": 13238200,
      "byteStride": 12,
      "name": "floatBufferViews",
      "target": 34962
    },
    {
      "buffer": 0,
      "byteLength": 4012256,
      "byteOffset": 19256584,
      "byteStride": 16,
      "name": "floatBufferViews",
      "target": 34962
    }
  ],
  "buffers": [
    {
      "byteLength": 23268840,
      "uri": "scene.bin"
    }
  ],
  "images": [
    {
      "uri": "textures/material_0_baseColor.jpeg"
    },
    {
      "uri": "textures/material_0_metallicRoughness.png"
    },
    {
      "uri": "textures/material_0_normal.jpeg"
    }
  ],
  "materials": [
    {
      "doubleSided": true,
      "name": "material_0",
      "normalTexture": {
        "index": 2,
        "texCoord": 2
      },
      "pbrMetallicRoughness": {
        "baseColorTexture": {
          "index": 0
        },
        "metallicRoughnessTexture": {
          "index": 1,
          "texCoord": 1
        }
      }
    }
  ],
  "meshes": [
    {
      "name": "Object_0",
      "primitives": [
        {
          "attributes": {
            "NORMAL": 1,
            "POSITION": 0,
            "TANGENT": 2,
            "TEXCOORD_0": 3,
            "TEXCOORD_1": 4,
            "TEXCOORD_2": 5,
            "TEXCOORD_3": 6
          },
          "indices": 7,
          "material": 0,
          "mode": 4
        }
      ]
    },
    {
      "name": "Object_1",
      "primitives": [
        {
          "attributes": {
            "NORMAL": 9,
            "POSITION": 8,
            "TANGENT": 10,
            "TEXCOORD_0": 11,
            "TEXCOORD_1": 12,
            "TEXCOORD_2": 13,
            "TEXCOORD_3": 14
          },
          "indices": 15,
          "material": 0,
          "mode": 4
        }
      ]
    },
    {
      "name": "Object_2",
      "primitives": [
        {
          "attributes": {
            "NORMAL": 17,
            "POSITION": 16,
            "TANGENT": 18,
            "TEXCOORD_0": 19,
            "TEXCOORD_1": 20,
            "TEXCOORD_2": 21,
            "TEXCOORD_3": 22
          },
          "indices": 23,
          "material": 0,
          "mode": 4
        }
      ]
    },
    {
      "name": "Object_3",
      "primitives": [
        {
          "attributes": {
            "NORMAL": 25,
            "POSITION": 24,
            "TANGENT": 26,
            "TEXCOORD_0": 27,
            "TEXCOORD_1": 28,
            "TEXCOORD_2": 29,
            "TEXCOORD_3": 30
          },
          "indices": 31,
          "material": 0,
          "mode": 4
        }
      ]
    }
  ],
  "nodes": [
    {
      "children": [
        1
      ],
      "matrix": [
        1.0,
        0.0,
        0.0,
        0.0,
        0.0,
        2.220446049250313e-16,
        -1.0,
        0.0,
        0.0,
        1.0,
        2.220446049250313e-16,
        0.0,
        0.0,
        0.0,
        0.0,
        1.0
      ],
      "name": "Sketchfab_model"
    },
    {
      "children": [
        2
      ],
      "name": "root"
    },
    {
      "children": [
        3
      ],
      "matrix": [
        1.0,
        0.0,
        0.0,
        0.0,
        0.0,
        2.220446049250313e-16,
        1.0,
        0.0,
        0.0,
        -1.0,
        2.220446049250313e-16,
        0.0,
        0.0,
        0.0,
        0.0,
        1.0
      ],
      "name": "GLTF_SceneRootNode"
    },
    {
      "children": [
        4,
        5,
        6,
        7
      ],
      "name": "_0"
    },
    {
      "mesh": 0,
      "name": "Object_4"
    },
    {
      "mesh": 1,
      "name": "Object_5"
    },
    {
      "mesh": 2,
      "name": "Object_6"
    },
    {
      "mesh": 3,
      "name": "Object_7"
    }
  ],
  "samplers": [
    {
      "magFilter": 9729,
      "minFilter": 9987,
      "wrapS": 10497,
      "wrapT": 10497
    }
  ],
  "scene": 0,
  "scenes": [
    {
      "name": "Sketchfab_Scene",
      "nodes": [
        0
      ]
    }
  ],
  "textures": [
    {
      "sampler": 0,
      "source": 0
    },
    {
      "sampler": 0,
      "source": 1
    },
    {
      "sampler": 0,
      "source": 2
    }
  ]
}
